<?xml version="1.0" standalone="no"?>
<!DOCTYPE svg PUBLIC "-//W3C//DTD SVG 20010904//EN"
 "http://www.w3.org/TR/2001/REC-SVG-20010904/DTD/svg10.dtd">
<svg version="1.0" xmlns="http://www.w3.org/2000/svg"
 width="1080.000000pt" height="1080.000000pt" viewBox="0 0 1080.000000 1080.000000"
 preserveAspectRatio="xMidYMid meet">

<g transform="translate(0.000000,1080.000000) scale(0.100000,-0.100000)"
fill="#000000" stroke="none">
<path d="M6755 9486 c-94 -23 -166 -76 -212 -153 -17 -30 -30 -42 -42 -39 -63
19 -623 146 -641 146 -13 0 -31 -7 -40 -15 -9 -8 -72 -192 -140 -408 l-125
-394 -150 -12 c-147 -11 -326 -42 -454 -79 -83 -24 -111 -55 -91 -101 7 -18
22 -34 36 -37 13 -3 81 8 151 25 206 50 325 63 548 63 213 0 334 -13 520 -57
522 -123 892 -430 953 -790 15 -88 15 -102 0 -192 -70 -410 -516 -730 -1157
-829 -132 -20 -466 -23 -601 -5 -839 112 -1360 627 -1164 1150 50 133 157 269
307 388 55 44 67 59 67 83 0 91 -200 199 -348 187 -172 -13 -301 -111 -363
-277 -30 -79 -24 -211 14 -293 33 -71 75 -126 121 -158 l35 -24 -6 -85 c-10
-152 39 -330 132 -471 66 -100 220 -251 334 -327 224 -149 493 -249 806 -299
155 -24 536 -24 691 0 413 66 744 215 981 441 202 193 302 415 291 647 -2 49
-1 89 3 89 4 0 34 25 67 54 43 40 68 75 93 128 32 68 34 79 33 173 0 86 -4
108 -26 155 -76 164 -233 260 -404 247 -77 -6 -160 -37 -219 -81 l-30 -23 -95
54 c-235 133 -515 212 -881 248 l-56 6 104 327 c57 180 105 332 107 338 4 9
233 -40 562 -121 17 -4 24 -17 33 -62 52 -263 361 -368 558 -190 199 181 110
511 -156 573 -67 16 -80 16 -146 0z m153 -141 c149 -63 166 -264 28 -349 -133
-83 -306 11 -306 166 0 142 146 238 278 183z m-2597 -1085 l39 -20 -79 -76
c-102 -97 -154 -165 -212 -276 l-46 -90 -25 33 c-42 56 -60 99 -65 159 -12
134 77 256 212 291 45 12 131 1 176 -21z m2819 -7 c160 -82 196 -299 70 -433
l-32 -34 -23 56 c-38 93 -112 198 -211 297 -52 52 -94 95 -94 96 0 5 76 39
105 46 50 13 127 1 185 -28z"/>
<path d="M4644 8374 c-37 -55 25 -117 80 -80 18 11 26 25 26 45 0 59 -75 84
-106 35z"/>
<path d="M4972 7977 c-52 -16 -126 -89 -152 -149 -68 -159 53 -337 230 -338
107 0 213 77 240 176 55 195 -127 373 -318 311z"/>
<path d="M6067 7976 c-111 -40 -190 -167 -171 -274 30 -168 211 -261 362 -186
160 80 186 286 52 407 -71 64 -158 83 -243 53z"/>
<path d="M5022 7124 c-15 -10 -22 -25 -22 -49 0 -62 115 -143 275 -191 80 -24
111 -27 274 -32 267 -6 401 20 538 104 110 68 138 119 93 164 -30 30 -56 25
-121 -24 -118 -89 -261 -121 -509 -113 -213 6 -313 35 -429 123 -49 38 -66 41
-99 18z"/>
<path d="M3542 6468 c-28 -31 -28 -69 1 -96 22 -21 33 -22 179 -22 203 0 252
-17 303 -104 29 -50 39 -99 250 -1197 81 -420 156 -788 167 -817 26 -69 108
-154 185 -190 l58 -27 910 0 910 0 60 28 c72 34 138 95 171 160 14 26 153 381
309 788 306 793 305 792 270 877 -19 44 -49 78 -90 100 -27 16 -157 17 -1509
22 l-1480 5 -27 130 c-39 194 -86 268 -207 327 l-66 33 -186 3 c-184 3 -185 3
-208 -20z m3628 -638 c11 -11 20 -31 20 -44 0 -13 -130 -362 -290 -776 -309
-805 -305 -795 -389 -837 -34 -17 -91 -18 -916 -18 l-880 0 -41 22 c-46 25
-85 66 -102 109 -10 24 -222 1110 -222 1135 0 5 382 9 849 9 l850 0 20 26 c27
35 26 59 -4 89 l-24 25 -861 0 c-473 0 -860 1 -860 3 0 1 -11 58 -25 127 -13
69 -25 131 -25 138 0 9 295 12 1440 12 1427 0 1440 0 1460 -20z"/>
<path d="M6290 5550 c-12 -12 -20 -33 -20 -54 0 -51 27 -66 122 -66 89 0 118
17 118 70 0 53 -29 70 -120 70 -67 0 -83 -3 -100 -20z"/>
<path d="M4771 3851 c-60 -23 -68 -28 -129 -85 -54 -50 -87 -114 -101 -192
-45 -244 188 -461 430 -400 325 82 366 524 60 664 -76 35 -185 40 -260 13z
m230 -155 c21 -15 51 -45 66 -68 24 -35 28 -52 28 -108 0 -56 -5 -74 -30 -115
-69 -112 -224 -132 -323 -41 -86 77 -83 225 6 309 65 62 178 72 253 23z"/>
<path d="M6193 3852 c-307 -110 -325 -522 -28 -658 85 -40 194 -40 280 0 78
35 146 103 182 180 24 52 28 73 28 146 -1 72 -5 94 -30 144 -59 124 -169 197
-305 203 -55 3 -89 -1 -127 -15z m206 -148 c135 -68 158 -243 45 -343 -55 -49
-116 -65 -188 -49 -65 14 -139 84 -156 147 -26 99 22 204 113 246 68 32 120
32 186 -1z"/>
</g>
</svg>
